<svg id="Capa_1" enable-background="new 0 0 512.014 512.014" height="512" viewBox="0 0 512.014 512.014" width="512" xmlns="http://www.w3.org/2000/svg"><g><path d="m315.014.007h-15c-37.324 0-71.865 16.919-94.79 46.406l83.481 74.209c26.25-22.837 41.309-55.869 41.309-90.615v-15c0-8.291-6.709-15-15-15z" fill="#bc5f19"/><path d="m30.014.007h-15c-8.291 0-15 6.709-15 15v15c0 34.746 15.059 67.778 41.309 90.615l83.481-74.209c-22.925-29.487-57.466-46.406-94.79-46.406z" fill="#e68a44"/><g><path d="m210.014 120.022h.103c21.929 0 42.612-7.749 59.268-22.383 19.468-17.095 30.63-41.748 30.63-67.632-25.898 0-50.552 11.162-67.646 30.63-14.665 16.699-22.399 37.427-22.355 59.385z" fill="#38211a"/></g><g><path d="m134.106 134.084h.293zm-104.092-104.077c0 25.898 11.162 50.552 30.63 67.646 16.655 14.619 37.339 22.354 59.238 22.354h.146c.029-21.958-7.72-42.686-22.383-59.37-17.094-19.468-41.747-30.63-67.631-30.63z" fill="#5b362a"/></g><path d="m451.014 406.099-15.594 26.398-14.406-33.328c-10.089-1.844-20.213-3.267-30-4.369l-16.22 28.708-13.78-31.098c-5.35-.242-11.475-.403-16-.403h-68.174l-16.37 90 24.543 30h60c4.525 0 10.65-.161 16-.403l14.302-31.139 15.698 28.75c9.787-1.102 19.911-2.525 30-4.369l16.643-33.845 13.357 26.914c33.318-9.435 61-24.148 61-45.908s-27.681-36.473-60.999-45.908z" fill="#873f2e"/><path d="m300.014 331.007c0-47.871-10.444-95.614-29.429-132.602h-105.571-105.571c-18.984 36.987-29.429 84.73-29.429 132.602 0 38.174 6.577 79.823 18.633 116.532-11.938 13.608-18.633 31.143-18.633 49.468 0 8.291 6.709 15 15 15h79.57l11.88-25.854 19.982 25.854h8.568 8.569l19.98-25.825 11.884 25.825h79.567c8.291 0 15-6.709 15-15 0-18.325-6.694-35.859-18.633-49.468 12.056-36.709 18.633-78.358 18.633-116.532z" fill="#e68a44"/><path d="m193.564 486.182 11.884 25.825h79.567c8.291 0 15-6.709 15-15 0-18.325-6.694-35.859-18.633-49.468 12.056-36.709 18.633-78.358 18.633-116.532 0-47.871-10.444-95.614-29.429-132.602h-105.572v313.602h8.569z" fill="#bc5f19"/><path d="m165.014 30.007c-59.72 0-112.588 35.284-135.89 90l69.573 115.107c17.062 11.155 32.084 25.58 43.759 43.096l10.078 15.117c2.783 4.175 7.471 6.68 12.48 6.68s9.697-2.505 12.48-6.68l10.078-15.117c11.675-17.516 26.697-31.941 43.759-43.096l69.573-115.107c-23.302-54.716-76.17-90-135.89-90z" fill="#eeaf80"/><path d="m187.572 278.21c11.675-17.516 26.697-31.941 43.759-43.096l69.573-115.107c-23.302-54.716-76.17-90-135.89-90v270c5.01 0 9.697-2.505 12.48-6.68z" fill="#e68a44"/><path d="m421.014 399.168v105.677c10.261-1.877 20.378-4.206 30-6.931v-91.816c-9.622-2.724-19.739-5.053-30-6.93z" fill="#38211a"/><path d="m361.014 392.41v119.194c9.183-.414 19.323-1.187 30-2.39v-114.415c-10.677-1.203-20.817-1.975-30-2.389z" fill="#38211a"/><path d="m239.574 377.827c.454-8.276-5.874-15.352-14.15-15.791-8.247-.981-15.352 5.874-15.791 14.15-1.495 27.246-7.046 54.902-16.069 79.995l-19.98 55.825h31.864l16.359-45.688c9.974-27.788 16.127-58.388 17.767-88.491z" fill="#873f2e"/><path d="m120.395 376.187c-.454-8.276-7.573-15.176-15.791-14.15-8.276.439-14.604 7.515-14.15 15.791 1.641 30.103 7.793 60.703 17.769 88.462l16.362 45.718h31.862l-19.982-55.854c-9.024-25.065-14.577-52.721-16.07-79.967z" fill="#bc5f19"/><path d="m328.944 189.441-26.572-66.431c-.419-1.049-1.027-1.968-1.469-3.003h-45.89c-33.137 0-60 26.862-60 60 0 24.719 14.967 45.917 36.317 55.107 24.534-16.04 53.41-25.107 83.683-25.107 10.593 0 17.865-10.734 13.931-20.566z" fill="#5b362a"/><path d="m135.014 180.007c0-33.138-26.863-60-60-60h-45.89c-.441 1.035-1.049 1.954-1.469 3.003l-26.572 66.431c-3.935 9.836 3.34 20.566 13.931 20.566 30.273 0 59.149 9.067 83.683 25.107 21.35-9.19 36.317-30.388 36.317-55.107z" fill="#704c55"/></g></svg>